<?xml version="1.0" standalone="no"?>
<!DOCTYPE svg PUBLIC "-//W3C//DTD SVG 20010904//EN"
 "http://www.w3.org/TR/2001/REC-SVG-20010904/DTD/svg10.dtd">
<svg version="1.0" xmlns="http://www.w3.org/2000/svg"
 width="313.000000pt" height="225.000000pt" viewBox="0 0 313.000000 225.000000"
 preserveAspectRatio="xMidYMid meet">

<g transform="translate(0.000000,225.000000) scale(0.100000,-0.100000)"
fill="#000000" stroke="none">
<path d="M153 2184 c-18 -9 -40 -28 -50 -43 -17 -24 -18 -81 -21 -987 -2 -756
0 -969 10 -1000 8 -24 26 -47 47 -61 l34 -23 1411 0 c1382 0 1412 0 1443 20
67 40 63 -21 63 1042 0 1077 4 1013 -70 1050 -33 17 -122 18 -1435 18 -1255 0
-1403 -2 -1432 -16z m635 -354 c113 -69 85 -224 -47 -260 -56 -15 -110 2 -153
49 -33 35 -38 46 -38 89 0 55 22 91 74 123 42 26 121 25 164 -1z m542 -515 l0
-455 235 0 235 0 0 -130 0 -130 -395 0 -395 0 0 578 c0 318 3 582 7 585 3 4
75 7 160 7 l153 0 0 -455z m920 0 l0 -455 235 0 235 0 0 -130 0 -130 -395 0
-395 0 0 585 0 585 160 0 160 0 0 -455z m-1390 -275 l0 -440 -155 0 -155 0 0
440 0 440 155 0 155 0 0 -440z"/>
</g>
</svg>
